<?xml version="1.0" encoding="iso-8859-1"?>
<!-- Generator: Adobe Illustrator 18.1.1, SVG Export Plug-In . SVG Version: 6.00 Build 0)  -->
<svg version="1.1" id="Capa_1" xmlns="http://www.w3.org/2000/svg" xmlns:xlink="http://www.w3.org/1999/xlink" x="0px" y="0px"
	 viewBox="0 0 32 32" style="enable-background:new 0 0 32 32;" xml:space="preserve" fill="#b4ae24">
<g id="menu">
	<path d="M28.356,10.373H3.643C1.634,10.373,0,8.739,0,6.73c0-2.008,1.634-3.643,3.643-3.643h24.713C30.365,3.087,32,4.722,32,6.73
		C32,8.739,30.365,10.373,28.356,10.373z M3.643,5.087C2.737,5.087,2,5.824,2,6.73s0.737,1.643,1.643,1.643h24.713
		C29.262,8.373,30,7.636,30,6.73s-0.737-1.643-1.643-1.643H3.643z"/>
	<path d="M28.356,19.641H3.643C1.634,19.641,0,18.007,0,15.998s1.634-3.643,3.643-3.643h24.713c2.009,0,3.643,1.634,3.643,3.643
		S30.365,19.641,28.356,19.641z M3.643,14.355C2.737,14.355,2,15.092,2,15.998s0.737,1.643,1.643,1.643h24.713
		c0.906,0,1.643-0.737,1.643-1.643s-0.737-1.643-1.643-1.643H3.643z"/>
	<path d="M28.356,28.912L3.643,28.91C1.634,28.91,0,27.275,0,25.267s1.634-3.643,3.643-3.643l24.714,0.002
		c2.008,0,3.643,1.634,3.643,3.643C32,27.278,30.365,28.912,28.356,28.912z M3.643,23.624C2.737,23.624,2,24.361,2,25.267
		s0.737,1.643,1.643,1.644l24.713,0.002c0.906,0,1.643-0.737,1.643-1.643s-0.737-1.643-1.643-1.643L3.643,23.624z"/>
</g>

</svg>
